<svg xmlns="http://www.w3.org/2000/svg" viewBox="0 0 581.1 581.1"><defs><style>.cls-1{fill:#323437;}</style></defs><g id="Camada_2" data-name="Camada 2"><g id="Camada_1-2" data-name="Camada 1"><path class="cls-1" d="M306.15,201.44H275a75.94,75.94,0,0,0-45.1,14.79h121.4A75.94,75.94,0,0,0,306.15,201.44Z"/><path class="cls-1" d="M503.85,0H77.26A77.26,77.26,0,0,0,0,77.26V503.85A77.26,77.26,0,0,0,77.26,581.1H503.85a77.26,77.26,0,0,0,77.25-77.25V77.26A77.26,77.26,0,0,0,503.85,0ZM405.72,490h-99.1V457.88h80.54l87.32-151.26H106.62L194,457.88h80.53V490H175.39L60.22,290.55,175.39,91.08h99.09v32.15H194L106.62,274.48h70.59A97.92,97.92,0,0,1,274.32,180l16.23-51.71L306.78,180a97.91,97.91,0,0,1,97.11,94.45h70.59L387.16,123.23H306.62V91.08h99.1L520.88,290.55Z"/><path class="cls-1" d="M364.49,228.6H216.61a76.5,76.5,0,0,0-8.36,12.09H372.86A77.23,77.23,0,0,0,364.49,228.6Z"/><path class="cls-1" d="M200.21,262.12a76.08,76.08,0,0,0-1.57,12.36H382.46a76.08,76.08,0,0,0-1.57-12.36Z"/></g></g></svg>