<svg xmlns="http://www.w3.org/2000/svg" viewBox="0 0 1502.36 254.2"><defs><style>.cls-1{fill:#fff;}.cls-2{fill:#ffcf60;}</style></defs><g id="Camada_2" data-name="Camada 2"><g id="Camada_1-2" data-name="Camada 1"><polygon class="cls-1" points="161.76 105.44 33.94 105.44 33.94 0 0 0 0 250.59 33.94 250.59 33.94 136.49 161.76 136.49 161.76 250.59 195.71 250.59 195.71 0 161.76 0 161.76 105.44"/><path class="cls-1" d="M398.63,241.56a93.8,93.8,0,0,0,34.3-34.3q12.63-21.66,12.64-49.11V0h-34.3V157.43q0,19.5-8.13,33.94a57.87,57.87,0,0,1-22,22.39q-13.9,8-32,7.94t-32.32-7.94a58.33,58.33,0,0,1-22.56-22.39Q286,176.94,286,157.07V0h-34.3V157.79q0,27.45,12.82,49.29a93.79,93.79,0,0,0,34.84,34.48q22,12.65,49.83,12.64T398.63,241.56Z"/><path class="cls-1" d="M535.48,250.59H598.3q26.36,0,44.6-9.57t28-25.45a67,67,0,0,0,9.75-35.75q0-23.83-13.54-41.35a76.59,76.59,0,0,0-27.57-21.88A65.31,65.31,0,0,0,658.79,99.3q11-15.17,11-35.39a61.56,61.56,0,0,0-8.49-31.77Q652.82,17.7,636.4,8.85T595.42,0H501.54V250.59h33.94Zm110.85-73.3a43,43,0,0,1-12.28,30.87Q621.77,221,600.11,221H535.48V133.6h65.35q14.08,0,24.38,6a41,41,0,0,1,15.7,15.7A44.62,44.62,0,0,1,646.33,177.29Zm-52-147.68q18.78,0,30,9.57T635.5,66.8q0,18.06-10.66,27.62T595.78,104h-60.3V29.61Z"/><polygon class="cls-2" points="900.82 107.24 772.99 107.24 772.99 1.8 739.05 1.8 739.05 252.39 772.99 252.39 772.99 138.29 900.82 138.29 900.82 252.39 934.76 252.39 934.76 1.8 900.82 1.8 900.82 107.24"/><rect class="cls-2" x="993.97" y="1.81" width="33.94" height="250.59"/><polygon class="cls-2" points="1181.58 196.71 1105.54 1.8 1068.35 1.8 1169.09 252.39 1193.64 252.39 1294.75 1.8 1258.28 1.8 1181.58 196.71"/><polygon class="cls-2" points="1369.48 221.34 1369.48 139.38 1490.44 139.38 1490.44 109.41 1369.48 109.41 1369.48 32.86 1500.56 32.86 1500.56 1.8 1369.48 1.8 1358.66 1.8 1335.54 1.8 1335.54 252.39 1358.66 252.39 1369.48 252.39 1502.36 252.39 1502.36 221.34 1369.48 221.34"/></g></g></svg>