<svg xmlns="http://www.w3.org/2000/svg" viewBox="0 0 1129.56 978.23"><g id="Camada_2" data-name="Camada 2"><g id="Camada_1-2" data-name="Camada 1"><path d="M847.17,0h-243V78.82H801.66L1015.79,449.7H842.7c-4.35-127.95-109.33-230.78-238.13-231.59L564.78,91.32,525,218.11c-128.8.81-233.79,103.64-238.13,231.59H113.77L327.9,78.82H525.37V0h-243L0,489.11,282.39,978.23h243V899.41H327.9L113.77,528.52h902L801.66,899.41H604.19v78.82h243l282.39-489.12ZM746.09,337.21a189.24,189.24,0,0,1,20.51,29.63H363a187.89,187.89,0,0,1,20.51-29.63ZM526.52,270.62H603a186.27,186.27,0,0,1,110.57,36.24H416A186.27,186.27,0,0,1,526.52,270.62ZM339.41,449.7a187.88,187.88,0,0,1,3.85-30.31h443a186.77,186.77,0,0,1,3.86,30.31Z"/></g></g></svg>