<svg xmlns="http://www.w3.org/2000/svg" viewBox="0 0 3621.26 747.87"><defs><style>.cls-1{fill:#212121;}.cls-2{fill:#3c3c3c;}</style></defs><g id="Camada_2" data-name="Camada 2"><g id="Camada_1-2" data-name="Camada 1"><path class="cls-1" d="M394,259.25H353.86a97.76,97.76,0,0,0-58,19H452.05A97.73,97.73,0,0,0,394,259.25Z"/><path class="cls-1" d="M648.44,0h-549A99.43,99.43,0,0,0,0,99.43v549a99.43,99.43,0,0,0,99.43,99.43h549a99.43,99.43,0,0,0,99.43-99.43v-549A99.43,99.43,0,0,0,648.44,0ZM522.15,630.65H394.62V589.28H498.26L610.65,394.62H137.22L249.61,589.28H353.25v41.37H225.72L77.51,373.93,225.72,117.22H353.25v41.37H249.61L137.22,353.25h90.85a126,126,0,0,1,125-121.56l20.88-66.54,20.89,66.54a126,126,0,0,1,125,121.56h90.85L498.26,158.59H394.62V117.22H522.15L670.36,373.93Z"/><path class="cls-1" d="M469.1,294.21H278.77A99,99,0,0,0,268,309.76H479.86A99,99,0,0,0,469.1,294.21Z"/><path class="cls-1" d="M257.67,337.34a98,98,0,0,0-2,15.91H492.22a98,98,0,0,0-2-15.91Z"/><polygon class="cls-1" points="1187.66 333.77 950.68 333.77 950.68 138.3 887.76 138.3 887.76 602.88 950.68 602.88 950.68 391.34 1187.66 391.34 1187.66 602.88 1250.59 602.88 1250.59 138.3 1187.66 138.3 1187.66 333.77"/><path class="cls-1" d="M1626.8,586.14a173.87,173.87,0,0,0,63.6-63.59q23.43-40.17,23.43-91V138.3h-63.6V430.17q0,36.15-15.06,62.92a107.29,107.29,0,0,1-40.84,41.51q-25.77,14.73-59.24,14.72t-59.91-14.72a108.15,108.15,0,0,1-41.84-41.51q-15.4-26.76-15.4-63.59V138.3h-63.59V430.84q0,50.88,23.76,91.37a173.88,173.88,0,0,0,64.6,63.93q40.82,23.45,92.38,23.43T1626.8,586.14Z"/><path class="cls-1" d="M1880.52,602.88H1997q48.86,0,82.67-17.74T2131.55,538q18.07-29.46,18.07-66.28,0-44.18-25.1-76.65-19.55-25.27-51.12-40.57c14.71-8.92,26.66-19.58,35.73-32.06q20.4-28.11,20.41-65.61a114.22,114.22,0,0,0-15.73-58.9q-15.73-26.77-46.19-43.18t-76-16.4H1817.59V602.88h62.93ZM2086,467q0,33.48-22.76,57.23T2000.34,548H1880.52V386h121.16q26.11,0,45.19,11A76,76,0,0,1,2076,426.15Q2086,444.23,2086,467Zm-96.4-273.8q34.8,0,55.57,17.74T2066,262.14q0,33.48-19.75,51.21t-53.89,17.74H1880.52V193.19Z"/><polygon class="cls-2" points="2506.01 337.12 2269.03 337.12 2269.03 141.64 2206.1 141.64 2206.1 606.23 2269.03 606.23 2269.03 394.69 2506.01 394.69 2506.01 606.23 2568.93 606.23 2568.93 141.64 2506.01 141.64 2506.01 337.12"/><rect class="cls-2" x="2678.72" y="141.64" width="62.93" height="464.58"/><polygon class="cls-2" points="3026.53 502.99 2885.57 141.64 2816.61 141.64 3003.39 606.23 3048.91 606.23 3236.35 141.64 3168.74 141.64 3026.53 502.99"/><polygon class="cls-2" points="3374.91 548.66 3374.91 396.69 3599.17 396.69 3599.17 341.13 3374.91 341.13 3374.91 199.21 3617.92 199.21 3617.92 141.64 3374.91 141.64 3354.83 141.64 3311.98 141.64 3311.98 606.23 3354.83 606.23 3374.91 606.23 3621.26 606.23 3621.26 548.66 3374.91 548.66"/></g></g></svg>