<svg xmlns="http://www.w3.org/2000/svg" viewBox="0 0 366.75 317.38"><defs><style>.cls-1{fill:#010101;}</style></defs><g id="Camada_2" data-name="Camada 2"><g id="Camada_1-2" data-name="Camada 1"><path d="M250.28,175.63v-34.4h0a57.8,57.8,0,0,0-46-54.54,40.94,40.94,0,0,1,8.21-9,10.07,10.07,0,1,0-4.56-8.43,10.13,10.13,0,0,0,.34,2.6A41.39,41.39,0,0,0,196,85.62c-1-.06-2-.1-3.08-.1H173.82c-1,0-2.08,0-3.11.1a41.28,41.28,0,0,0-12.16-13.74,10.07,10.07,0,1,0-9.73,7.47,10,10,0,0,0,5.51-1.64,40.81,40.81,0,0,1,8.22,9,57.8,57.8,0,0,0-46,54.53h-.06v34.85h0V184h0a57.77,57.77,0,0,0,57.29,55.72l9.57,18.46,9.57-18.46A57.77,57.77,0,0,0,250.22,184h.06v-8.36Zm-43.51-61.06a6.34,6.34,0,0,1,6.33,6.33v11.29a6.33,6.33,0,0,1-6.33,6.33h0a6.33,6.33,0,0,1-6.33-6.33V120.9a6.34,6.34,0,0,1,6.33-6.33Zm-53.11,6.33a6.33,6.33,0,0,1,6.32-6.33h0a6.34,6.34,0,0,1,6.33,6.33v11.29a6.33,6.33,0,0,1-6.33,6.33h0a6.32,6.32,0,0,1-6.32-6.33Zm38.9,106.17h-18.4a44.77,44.77,0,0,1-26.6-8.72h71.6A44.77,44.77,0,0,1,192.56,227.07Zm34.42-16H139.74a45.21,45.21,0,0,1-4.93-7.13h97.1A45.21,45.21,0,0,1,227,211.05Zm9.67-19.77H130.07a44.85,44.85,0,0,1-.93-7.29H237.58A44.85,44.85,0,0,1,236.65,191.28Z"/><path class="cls-1" d="M275.06,0H91.69L0,158.69,91.69,317.38H275.06l91.69-158.69ZM254.79,282.12H112L40.73,158.69,112,35.26H254.61l71.23,123.43Z"/></g></g></svg>